<svg width="36" height="36" viewBox="0 0 36 36" fill="none" xmlns="http://www.w3.org/2000/svg">
<path d="M6.5714 26.0833C6.93702 26.0833 7.29702 25.9877 7.61483 25.8049C6.71062 24.7544 6.71062 23.1991 7.61483 22.1487C7.04671 21.8239 6.36045 21.7817 5.75716 22.0348C5.15387 22.2865 4.70246 22.8054 4.53514 23.4368C4.36779 24.0696 4.50279 24.7432 4.90216 25.2621C5.30014 25.7796 5.91747 26.0834 6.57137 26.0834L6.5714 26.0833Z" fill="#3734A9"/>
<path d="M8.67984 23.9769C8.67984 25.8205 7.64062 25.8205 7.64062 23.9769C7.64062 22.1333 8.67984 22.1333 8.67984 23.9769Z" fill="#3734A9"/>
<path d="M17.6133 22.7109H31.5352V25.2422H17.6133V22.7109Z" fill="#3734A9"/>
<path d="M9.74658 26.0832C10.4019 26.0832 11.0193 25.7808 11.4186 25.2619C11.8166 24.743 11.953 24.0694 11.7856 23.4366C11.6169 22.8038 11.1655 22.2849 10.5608 22.0332C9.95751 21.7815 9.27128 21.8237 8.70312 22.1485C9.60734 23.199 9.60734 24.7543 8.70312 25.8047C9.02094 25.9875 9.38093 26.0831 9.74655 26.0831L9.74658 26.0832Z" fill="#3734A9"/>
<path d="M1.61719 11.8506H34.3829V16.1411H1.61719V11.8506Z" fill="#3734A9"/>
<path d="M1.61719 29.498H34.3829V16.8447H1.61719V29.498ZM16.9089 22.3599C16.9089 22.1659 17.0664 22.0084 17.2605 22.0084H31.8855C31.9783 22.0084 32.0683 22.0449 32.1344 22.111C32.2005 22.1771 32.237 22.2671 32.237 22.3599V25.5943C32.237 25.6871 32.2005 25.7771 32.1344 25.8432C32.0683 25.9093 31.9783 25.9459 31.8855 25.9459H17.2605C17.0664 25.9459 16.9089 25.7884 16.9089 25.5943V22.3599ZM6.57295 21.1674C7.13966 21.1674 7.69373 21.339 8.15918 21.661C9.01979 21.0704 10.1364 21.0057 11.0589 21.4909C11.9814 21.9774 12.5594 22.9337 12.5594 23.9771C12.5594 25.0205 11.9814 25.9768 11.0589 26.4633C10.1364 26.9485 9.0198 26.8838 8.16058 26.2932H8.15918C7.4237 26.798 6.49137 26.9232 5.649 26.6293C4.80524 26.3368 4.15277 25.6604 3.88839 24.8082C3.62401 23.9546 3.78151 23.0279 4.31168 22.3093C4.84045 21.5921 5.67996 21.1674 6.57291 21.1674L6.57295 21.1674Z" fill="#3734A9"/>
<path d="M1.61719 6.50244V11.1472H34.3829V6.50244H1.61719ZM4.29609 8.97323H3.25688V8.27011H4.29609V8.97323ZM11.8194 8.97323H5.12697V8.27011H11.8194V8.97323Z" fill="#3734A9"/>
</svg>
