<svg width="40" height="46" viewBox="0 0 40 46" fill="none" xmlns="http://www.w3.org/2000/svg">
<path d="M34.7187 25.1621H24.3187C23.7984 25.1621 23.3984 24.7153 23.3984 24.1341V12.517C23.3984 11.9358 22.9578 11.4454 22.4391 11.489C18.8391 11.8014 15.7187 13.8575 13.6391 16.8963C12.4391 16.1371 11.0391 15.6903 9.55946 15.6903C4.83906 15.6903 1.03906 19.9804 1.03906 25.2077C1.03906 30.4351 4.8797 34.7252 9.55946 34.7252C11.0798 34.7252 12.4798 34.233 13.7187 33.4738C15.9593 36.7359 19.4391 38.8811 23.2779 38.9244C29.8371 39.0134 35.1983 33.4282 35.6779 26.2793C35.7185 25.6527 35.2779 25.1623 34.7185 25.1623L34.7187 25.1621ZM3.15794 25.2057C3.15794 21.2734 5.99858 18.1024 9.51714 18.1024C13.0375 18.1024 15.8763 21.2754 15.8763 25.2057C15.8763 29.138 13.0357 32.3091 9.51714 32.3091C5.99838 32.3108 3.15794 29.0924 3.15794 25.2057V25.2057Z" fill="#FF7F5C"/>
<path d="M27.6781 7.73679C27.1578 7.69142 26.7188 8.1836 26.7188 8.76481V20.3818C26.7188 20.963 27.1188 21.4099 27.6391 21.4099H38.0391C38.5594 21.4099 38.9984 20.9176 38.9594 20.3382C38.5187 13.6343 33.7186 8.27261 27.6782 7.73688L27.6781 7.73679Z" fill="#FF7F5C"/>
<path d="M9.8776 24.3118H9.19792C8.99792 24.3118 8.83854 24.2228 8.6776 24.0431C8.55728 23.865 8.4776 23.6853 8.51822 23.4618C8.55884 23.0604 8.8776 22.7916 9.23854 22.7916H9.9979C10.1979 22.7916 10.3573 22.926 10.3979 23.1494C10.4385 23.3275 10.5573 23.4618 10.7573 23.4618H11.637C11.7573 23.4618 11.837 23.4165 11.9166 23.3275C11.9963 23.2384 11.9963 23.1494 11.9963 23.015C11.9166 21.987 11.1963 21.1824 10.3167 21.0498V20.2452C10.3167 20.0218 10.1573 19.8438 9.95728 19.8438H9.0776C8.8776 19.8438 8.71822 20.0218 8.71822 20.2452V21.0951C7.5979 21.3639 6.7979 22.5246 6.91822 23.8214C7.03853 25.1164 8.03854 26.1008 9.23854 26.1008H9.7979C9.9979 26.1008 10.1573 26.1898 10.3182 26.3696C10.4385 26.5476 10.5182 26.7274 10.4776 26.9508C10.437 27.3523 10.1182 27.621 9.75728 27.621H8.99792C8.79792 27.621 8.63854 27.4866 8.59792 27.2632C8.55729 27.0852 8.43854 26.9508 8.23854 26.9508H7.35886C7.23855 26.9508 7.15886 26.9962 7.07917 27.0852C6.99948 27.1742 6.99948 27.2632 6.99948 27.3976C7.07917 28.4256 7.79949 29.2303 8.67917 29.3629V30.1675C8.67917 30.3909 8.83854 30.5689 9.03854 30.5689H9.91822C10.1182 30.5689 10.2776 30.3909 10.2776 30.1675V29.3193C11.237 29.0505 11.9573 28.2022 12.0776 27.1306C12.1573 26.415 11.9182 25.7012 11.5182 25.1654C11.1182 24.6243 10.5182 24.3119 9.8776 24.3119V24.3118Z" fill="#FF7F5C"/>
</svg>
