<svg width="40" height="61" viewBox="0 0 40 61" fill="none" xmlns="http://www.w3.org/2000/svg">
<path fill-rule="evenodd" clip-rule="evenodd" d="M3.55291 22.771V30.0655C3.55291 39.239 11.02 46.7061 20.1934 46.7061C29.3669 46.7061 36.8339 39.239 36.8339 30.0655V22.771H39.8595V30.0655C39.8595 40.4001 31.8458 48.8989 21.7064 49.674L21.7062 57.5584H29.2701V60.584H11.1168V57.5584H18.6806L18.6805 49.674C8.54103 48.8989 0.527344 40.4001 0.527344 30.0655V22.771H3.55291ZM20.1934 0.583984C27.6998 0.583984 33.8084 6.69258 33.8084 14.199V29.3267C33.8084 36.8331 27.6998 42.9417 20.1934 42.9417C12.687 42.9417 6.57844 36.8331 6.57844 29.3267V14.199C6.57844 6.69258 12.687 0.583984 20.1934 0.583984Z" fill="#A0A0A0"/>
</svg>
