<svg width="122" height="122" viewBox="0 0 122 122" fill="none" xmlns="http://www.w3.org/2000/svg">
<path d="M61 23.6138C47.9596 23.6138 37.3862 34.1871 37.3862 47.2276C37.3862 60.268 47.9596 70.8413 61 70.8413C74.0404 70.8413 84.6138 60.268 84.6138 47.2276C84.6138 34.1871 74.0404 23.6138 61 23.6138ZM61 59.0209C54.4933 59.0209 49.2067 53.7342 49.2067 47.2276C49.2067 40.7209 54.4933 35.4342 61 35.4342C67.5067 35.4342 72.7933 40.7209 72.7933 47.2276C72.7933 53.7342 67.5067 59.0209 61 59.0209ZM61 0C27.3009 0 0 27.3009 0 61C0 94.6991 27.3009 122 61 122C94.6991 122 122 94.6991 122 61C122 27.3009 94.6991 0 61 0ZM61 110.207C48.7729 110.207 37.6031 105.706 29.0089 98.3049C32.6689 92.6387 38.9587 88.816 46.116 88.5991C51.24 90.1715 56.0929 90.9578 61 90.9578C65.9071 90.9578 70.76 90.1987 75.884 88.5991C83.0684 88.8431 89.3311 92.6658 92.9911 98.3049C84.3969 105.679 73.2271 110.207 61 110.207ZM101.016 89.5209C95.0244 81.7942 85.7524 76.7516 75.152 76.7516C72.6307 76.7516 68.7538 79.1102 60.9729 79.1102C53.2191 79.1102 49.3151 76.7516 46.7938 76.7516C36.2476 76.7516 26.9756 81.7942 20.9298 89.5209C15.1822 81.4689 11.7662 71.6276 11.7662 61C11.7662 33.8618 33.8347 11.7933 60.9729 11.7933C88.1111 11.7933 110.207 33.8618 110.207 61C110.207 71.6276 106.764 81.4689 101.016 89.5209Z" fill="#757575"/>
</svg>
