<svg xmlns="http://www.w3.org/2000/svg" viewBox="0 0 147.98 38"><path d="M16.54,13.17a2.45,2.45,0,0,1,1.78.69c1.69,1.42,3.39,2.84,5.05,4.3.42.37.68.32,1.07,0q2.37-2.07,4.79-4.09c1.54-1.28,2.54-1.26,4.06.07a109.72,109.72,0,0,1,8.6,8.38c.34.37,1,.75.62,1.34s-1,.1-1.44-.1a90.33,90.33,0,0,1-8.54-4.23c-.49-.27-.78-.26-1.13.2-.74.93-1.5,1.85-2.31,2.72-.38.41-.3.62.06,1q2.31,2.21,4.59,4.44a3.63,3.63,0,0,1,1,4,4.21,4.21,0,0,1-1.19,1.64c-1.45,1.4-2.9,2.8-4.37,4.18-.4.37-.46.62-.07,1a30.21,30.21,0,0,1,2.21,2.59c.45.6.81.55,1.4.23a86.78,86.78,0,0,1,8.08-4l.7-.3c.35-.14.74-.31,1,.06s0,.71-.25,1c-2,2.26-4.18,4.41-6.42,6.48-.87.81-1.75,1.61-2.64,2.41a2.54,2.54,0,0,1-3.79.07c-1.68-1.4-3.36-2.8-5-4.24a.61.61,0,0,0-1,0c-1.59,1.37-3.21,2.71-4.8,4.08s-2.56,1.32-4.09,0a109.72,109.72,0,0,1-8.6-8.38c-.34-.37-1-.77-.59-1.35s1-.06,1.44.13a90.41,90.41,0,0,1,8.55,4.22.69.69,0,0,0,1.06-.2c.75-.93,1.52-1.84,2.33-2.71.38-.42.36-.65,0-1-1.52-1.41-3-2.86-4.49-4.3a3.58,3.58,0,0,1-.12-5.48c1.5-1.51,3-3,4.6-4.44.39-.37.44-.61.06-1-.81-.88-1.57-1.8-2.32-2.72-.35-.44-.64-.44-1.13-.17a89.8,89.8,0,0,1-8.85,4.38c-.35.16-.75.47-1.08,0s0-.79.29-1.11A116.79,116.79,0,0,1,14.7,14,2.45,2.45,0,0,1,16.54,13.17Z" transform="translate(-5.2 -10)" fill="#fafcfb"/><path d="M39.31,21.76l-5.05-2.6c-.63-.32-1.26-.65-1.87-1a.92.92,0,0,0-1.34.22q-5,6-10.44,11.57a.76.76,0,0,0,0,1.24c.72.72,1.41,1.48,2.14,2.2.28.28.3.47,0,.77-.86.9-1.7,1.83-2.52,2.77-.28.32-.49.28-.76,0-1.59-1.54-3.22-3-4.77-4.62a2.35,2.35,0,0,1,.07-3.56,195.6,195.6,0,0,1,15.3-13.91c.94-.76,1.35-.79,2.17-.08,2.48,2.17,4.87,4.43,7.14,6.81Z" transform="translate(-5.2 -10)" fill="none"/><path d="M9,39.66A71.18,71.18,0,0,1,15.53,43c.55.31.88.09,1.24-.32,1.93-2.23,3.85-4.47,5.82-6.67,1.43-1.58,2.93-3.1,4.39-4.64.72-.76.72-.9,0-1.67s-1.24-1.33-1.9-2c-.31-.31-.32-.52,0-.84.84-.88,1.67-1.78,2.47-2.7.3-.35.5-.34.82,0,1.54,1.52,3.13,3,4.64,4.52a2.45,2.45,0,0,1-.07,3.76c-4.85,4.79-9.82,9.45-15.12,13.74-1.05.86-1.5.84-2.51-.06-2.22-2-4.39-4-6.47-6.15C8.7,39.81,8.66,39.65,9,39.66Z" transform="translate(-5.2 -10)" fill="none"/><path d="M39.47,39.33a81.07,81.07,0,0,1-7.34,7.15,1.26,1.26,0,0,1-1.78,0c-1.7-1.42-3.38-2.86-5.09-4.27-.41-.34-.43-.55,0-.9.73-.62,1.44-1.28,2.13-2,.35-.35.56-.33.87,0,.91,1.11,1.88,2.19,2.79,3.31a.9.9,0,0,0,1.32.25c2.1-1.12,4.23-2.2,6.35-3.29C39,39.54,39.21,39.44,39.47,39.33Z" transform="translate(-5.2 -10)" fill="none"/><path d="M8.16,21.81C10.08,19.73,12,18,13.87,16.23l1.71-1.54a1.34,1.34,0,0,1,1.92,0q2.52,2.16,5.07,4.28c.44.36.38.56,0,.89-.74.62-1.45,1.28-2.14,1.95-.33.33-.51.3-.79-.05-.83-1-1.69-2-2.54-3s-.9-1-2-.38c-2,1.07-3.93,2.16-6,3.09C8.84,21.55,8.61,21.63,8.16,21.81Z" transform="translate(-5.2 -10)" fill="none"/><path d="M23.92,28.26a2.92,2.92,0,0,1,.32.28c.52.52,1,1.06,1.55,1.58.29.29.36.52,0,.84-.51.48-1,1-1.46,1.54-.28.31-.49.4-.81,0C23,32,22.48,31.42,22,30.86c-.16-.16-.34-.33-.11-.57l1.84-1.89C23.74,28.34,23.83,28.32,23.92,28.26Z" transform="translate(-5.2 -10)" fill="none" stroke="#0039a1" stroke-miterlimit="10" stroke-width="0.41"/><text transform="translate(46.52 25.64)" font-size="29.3" fill="#fff" font-family="KellySlab-Regular, Kelly Slab">eduLink</text><text transform="translate(47.98 34.89)" font-size="7.96" fill="#62caef" font-family="Dosis-Medium, Dosis" font-weight="500">Linking Education to Your Future</text></svg>