<svg width="45" height="45" viewBox="0 0 45 45" fill="none" xmlns="http://www.w3.org/2000/svg">
<path d="M41.0557 36.3779L31.6865 28.415C30.7197 27.5449 29.6826 27.1406 28.8477 27.1846C31.0625 24.5918 32.3984 21.2344 32.3984 17.5605C32.3896 9.36035 25.7539 2.72461 17.5625 2.72461C9.37109 2.72461 2.72656 9.36035 2.72656 17.5605C2.72656 25.7607 9.3623 32.3965 17.5625 32.3965C21.2363 32.3965 24.5937 31.0605 27.1865 28.8457C27.1426 29.6807 27.5469 30.7178 28.417 31.6846L36.3799 41.0537C37.7422 42.5654 39.9746 42.6973 41.3281 41.335C42.6904 39.9727 42.5674 37.749 41.0557 36.3779ZM17.5625 27.4395C12.1045 27.4395 7.6748 23.0098 7.6748 17.5518C7.6748 12.0937 12.0957 7.66406 17.5625 7.66406C23.0293 7.66406 27.4502 12.0937 27.4502 17.5518C27.4502 23.0098 23.0205 27.4395 17.5625 27.4395Z" fill="#808080"/>
</svg>
